<svg width="257" height="79" viewBox="0 0 257 79" fill="none" xmlns="http://www.w3.org/2000/svg">
<path fill-rule="evenodd" clip-rule="evenodd" d="M93.8445 73.3333C108.071 73.3333 114.765 67.739 114.765 58.4192V42.5828C114.765 33.2749 108.058 27.6807 93.8445 27.6807C79.6308 27.6807 72.9238 33.263 72.9238 42.5828V58.4192C72.9238 67.739 79.6184 73.3333 93.8445 73.3333ZM93.7947 35.7195C101.806 35.7195 103.455 38.6903 103.455 43.8533V57.1502C103.455 62.3252 101.806 65.2841 93.7947 65.2841C85.7833 65.2841 84.1342 62.3132 84.1342 57.1502V43.8533C84.1342 38.6903 85.7833 35.7195 93.7947 35.7195Z" fill="#4D4D4F"/>
<path d="M146.529 47.746C159.5 52.2382 159.931 62.4804 165.235 71.8002C163.119 72.3171 160.968 72.6854 158.798 72.9022C146.787 72.9022 153.581 55.2809 135.65 52.4059V72.9022C135.65 72.9022 124.341 72.9022 124.341 67.3918V7.5918C124.341 7.5918 135.65 7.5918 135.65 13.1022V43.9366C140.782 43.1699 143.662 39.4444 147.575 32.2449C149.224 29.1902 152.498 28.1001 155.931 28.1001C158.023 28.1381 160.097 28.4814 162.084 29.1184C157.322 35.4673 154.368 44.7033 146.529 47.746Z" fill="#4D4D4F"/>
<path fill-rule="evenodd" clip-rule="evenodd" d="M187.336 35.8857C194.031 35.8857 195.778 38.593 195.778 41.6477C194.433 44.1804 190.259 45.1606 185.589 46.2571C177.911 48.0598 168.894 50.1771 168.901 60.0237C168.901 70.0982 177.688 73.3206 186.647 73.3206C189.207 73.3206 191.603 72.9152 193.922 72.523C196.095 72.1553 198.199 71.7992 200.307 71.7992C202.617 71.7253 204.913 72.1894 207.002 73.1529V42.1508C207.002 32.9148 200.209 27.668 187.422 27.668C180.285 27.668 170.107 29.8841 170.107 37.2513C170.107 39.5393 170.895 42.1628 173.418 45.469C173.418 38.3414 180.026 35.8857 187.336 35.8857ZM189.056 53.5369C192.21 52.8405 195.188 52.1833 196.036 50.2839V64.1079C193.462 65.1143 190.713 65.6308 187.939 65.6293C182.979 65.6293 180.112 63.6767 180.112 59.8673C180.112 55.5112 184.749 54.4876 189.056 53.5369Z" fill="#4D4D4F"/>
<path d="M244.868 42.9172C244.868 38.425 242.69 35.8854 236.512 35.8854C233.712 35.9138 230.929 36.3169 228.242 37.0833V72.913C228.242 72.913 216.933 72.913 216.933 67.4026V27.6797C219.373 28.8317 222.047 29.4374 224.759 29.4526C229.017 29.4526 233.029 27.6797 237.73 27.6797C246.689 27.6797 256.19 30.6385 256.19 41.6594V72.913C256.19 72.913 244.88 72.7453 244.88 67.4026L244.868 42.9172Z" fill="#4D4D4F"/>
<path d="M5.16016 3.95061C5.16016 3.95061 45.2181 1.05165 45.2181 34.9767C45.2181 68.9017 34.6296 75.7059 25.3479 77.8501C25.3479 77.8501 63.9526 86.9663 63.9526 39.2652C63.9526 -8.43585 14.7228 -1.57178 5.16016 3.95061Z" fill="#F1634C"/>
<path d="M37.7568 61.6303C37.7568 61.6303 33.8975 74.8074 22.2099 76.4725C10.5222 78.1376 8.34834 71.9205 0.226824 72.3517C0.0396793 70.6439 0.560632 68.9339 1.67242 67.6068C2.78421 66.2797 4.39341 65.447 6.13782 65.296C12.7205 64.4215 25.0554 66.1225 33.2502 61.0434C33.2502 61.0434 38.1354 58.5517 39.0513 57.3418L37.7568 61.6303Z" fill="#F1634C"/>
<path d="M4.5625 6.32263V22.6502V63.2836C4.96484 63.182 5.37254 63.102 5.78378 63.044C8.09208 62.8056 10.4118 62.6896 12.7329 62.6966C15.1754 62.6966 17.789 62.6008 20.4269 62.3612V43.1945C20.4269 36.8216 20.0117 30.3169 20.4269 23.956C20.8701 20.1145 23.4471 16.8303 27.1195 15.4268C30.0511 14.3609 33.3067 14.57 36.0715 16.0018C26.8921 9.55718 15.8499 6.16515 4.5625 6.32263Z" fill="#F1634C"/>
</svg>
